<svg preserveAspectRatio="none" width="100%" height="100%" overflow="visible" style="display: block;" viewBox="0 0 19 18" fill="none" xmlns="http://www.w3.org/2000/svg">
<path id="Vector" d="M9.5 0C4.25333 0 0 4.02947 0 9C0 13.9708 4.25333 18 9.5 18C14.747 18 19 13.9708 19 9C19 4.02947 14.747 0 9.5 0ZM9.5 16.8927C4.91655 16.8927 1.1875 13.3422 1.1875 8.99996C1.1875 4.65775 4.91655 1.12496 9.5 1.12496C14.0835 1.12496 17.8125 4.65776 17.8125 8.99996C17.8125 13.3422 14.0835 16.8927 9.5 16.8927ZM13.6562 8.4375H10.0938V5.0625C10.0938 4.752 9.82775 4.5 9.5 4.5C9.17225 4.5 8.90625 4.752 8.90625 5.0625V8.4375H5.34375C5.016 8.4375 4.75 8.6895 4.75 9C4.75 9.3105 5.016 9.5625 5.34375 9.5625H8.90625V12.9375C8.90625 13.248 9.17225 13.5 9.5 13.5C9.82775 13.5 10.0938 13.248 10.0938 12.9375V9.5625H13.6562C13.984 9.5625 14.25 9.3105 14.25 9C14.25 8.6895 13.984 8.4375 13.6562 8.4375Z" fill="var(--fill-0, black)"/>
</svg>
