<svg preserveAspectRatio="none" width="100%" height="100%" overflow="visible" style="display: block;" viewBox="0 0 30 30" fill="none" xmlns="http://www.w3.org/2000/svg">
<g id="ri:customer-service-2-fill" clip-path="url(#clip0_0_44)">
<path id="Vector" d="M27.9983 10.2487C28.6614 10.2487 29.2973 10.512 29.7661 10.9809C30.2349 11.4497 30.4983 12.0856 30.4983 12.7487V17.7487C30.4983 18.4117 30.2349 19.0476 29.7661 19.5164C29.2973 19.9853 28.6614 20.2487 27.9983 20.2487H26.6708C26.3664 22.6654 25.1903 24.8879 23.3633 26.499C21.5363 28.11 19.1842 28.9989 16.7483 28.9987V26.4987C18.7375 26.4987 20.6451 25.7085 22.0516 24.302C23.4582 22.8954 24.2483 20.9878 24.2483 18.9987V11.4987C24.2483 9.50953 23.4582 7.60188 22.0516 6.19535C20.6451 4.78883 18.7375 3.99865 16.7483 3.99865C14.7592 3.99865 12.8516 4.78883 11.445 6.19535C10.0385 7.60188 9.24834 9.50953 9.24834 11.4987V20.2487H5.49834C4.8353 20.2487 4.19941 19.9853 3.73057 19.5164C3.26173 19.0476 2.99834 18.4117 2.99834 17.7487V12.7487C2.99834 12.0856 3.26173 11.4497 3.73057 10.9809C4.19941 10.512 4.8353 10.2487 5.49834 10.2487H6.82584C7.13088 7.83227 8.30719 5.61025 10.1341 3.9995C11.9609 2.38875 14.3128 1.5 16.7483 1.5C19.1839 1.5 21.5358 2.38875 23.3626 3.9995C25.1895 5.61025 26.3658 7.83227 26.6708 10.2487H27.9983ZM11.4483 19.9799L12.7733 17.8599C13.9646 18.6063 15.3425 19.0011 16.7483 18.9987C18.1541 19.0011 19.5321 18.6063 20.7233 17.8599L22.0483 19.9799C20.46 20.9753 18.6228 21.5017 16.7483 21.4987C14.8739 21.5017 13.0367 20.9753 11.4483 19.9799Z" fill="var(--fill-0, black)"/>
</g>
<defs>
<clipPath id="clip0_0_44">
<rect width="30" height="30" fill="white"/>
</clipPath>
</defs>
</svg>
